# xmcd
#
# Track frame offsets: 
#        150
#        7744
#        21547
#        27097
#        46231
#        55967
#        75604
#        88622
#        101051
#        119178
#        143911
#        154877
#        169750
#        185106
#        198921
#        214153
#        229809
#        243262
#        252020
#        264656
#        280380
#        296763
#        306586
#        316523
#
# Disc length: 4724 seconds
#
# Revision: 0
# Processed by: cddbd v1.5.2PL0 Copyright (c) Steve Scherf et al.
# Submitted via: ExactAudioCopyFreeDBPlugin 1.0
#
DISCID=5c127218
DTITLE=Big Bill Broonzy - Big Bill Broonzy Classic Box Set [Avid Roots
DTITLE=]
DYEAR=2015
DGENRE=Blues
TTITLE0=Spoken Word Track 10
TTITLE1=This Train
TTITLE2=Spoken Word Track 11
TTITLE3=Hush Hush
TTITLE4=Spoken Word Track 12
TTITLE5=Backwater Blues
TTITLE6=Slow Blues (instrumental)
TTITLE7=It Hurts Me Too
TTITLE8=Kansas City Blues
TTITLE9=In the Evenin'
TTITLE10=Worried Life Blues
TTITLE11=Trouble in Mind
TTITLE12=Take This Hammer
TTITLE13=The Glory of Love
TTITLE14=Louise Blues
TTITLE15=Willie Mae Blues
TTITLE16=Alberta
TTITLE17=Old Folks at Home (Swanee River)
TTITLE18=Crawdad Song
TTITLE19=John Henry
TTITLE20=Just a Dream
TTITLE21=Frankie and Johnny
TTITLE22=Bill Bailey Won't You Please Come Home
TTITLE23=Hollerin' the Blues
EXTD=
EXTT0=
EXTT1=
EXTT2=
EXTT3=
EXTT4=
EXTT5=
EXTT6=
EXTT7=
EXTT8=
EXTT9=
EXTT10=
EXTT11=
EXTT12=
EXTT13=
EXTT14=
EXTT15=
EXTT16=
EXTT17=
EXTT18=
EXTT19=
EXTT20=
EXTT21=
EXTT22=
EXTT23=
PLAYORDER=
